<svg xmlns="http://www.w3.org/2000/svg" viewBox="0 0 40.77 60"><style>path{fill:#009ADE}</style><g><path d="M37.1,22.73a5,5,0,0,0-2.26-2c.43-4.06-.21-7.07-1.93-8.95,1.46-.12,2.81-.1,3.55-.09H37a1.14,1.14,0,1,0,0-2.27H36.5c-2.71,0-9-.13-11.35,3.26-1.14,1.65-1.06,5.56-.37,7,1.39,2.89,4,2.84,6.08,2.8s3.39,0,4.32,1.47c2.24,3.55,3.33,8.43,3.33,14.91,0,7.15-3,17.71-9.56,17.71-7.26,0-23.14-8.67-26.25-22.26L2.63,34c-.42-1.73-1.72-7,5.08-9.21,2.19-.72,9.37-3.39,10-7.78.87-5.94,1.79-6.86,3.46-8.53C23.67,6,30.62,4.93,36.41,4.93a1.14,1.14,0,0,0,0-2.27,50.15,50.15,0,0,0-8.73.8C27.44,3.24,24.2.5,18.73,2a12.16,12.16,0,0,0-6.08,3.54V1.13a1.14,1.14,0,0,0-2.27,0V8.49a1.07,1.07,0,0,0,.06.27,20.91,20.91,0,0,0-.9,2.11,14.84,14.84,0,0,0-3.63,1.5v-11a1.14,1.14,0,1,0-2.27,0V14.08a9.85,9.85,0,0,0-1.78,2.29C.31,19.12.19,22.5,1.47,26.4c-1.33,1.87-1.95,4.5-1,8.18l0,.22a28.64,28.64,0,0,0,8,13.77v10.3a1.13,1.13,0,0,0,2.26,0V50.66a41,41,0,0,0,4.48,3.28v4.93a1.14,1.14,0,0,0,2.27,0v-3.6C21.76,57.59,26,58.83,29,58.83c8.16,0,11.82-11.68,11.82-20C40.77,31.83,39.61,26.71,37.1,22.73ZM30.82,20.2c-2.13.05-3.27,0-4-1.51-.38-.8-.41-3.83.2-4.72a4.94,4.94,0,0,1,2.79-1.66c.9.4,3.42,1.58,2.82,7.92C32,20.18,31.39,20.19,30.82,20.2Zm-11.49-16a8.52,8.52,0,0,1,5.17.07,12.34,12.34,0,0,0-4.93,2.67c-2,2.05-3.16,3.42-4.09,9.8-.24,1.67-2.58,3.38-5.31,4.69A41.23,41.23,0,0,1,11,13.77C12.94,5.93,17.42,4.7,19.33,4.18ZM3.83,17.48a9.56,9.56,0,0,1,4.94-4,45,45,0,0,0-.89,8.86l-.88.3a12.73,12.73,0,0,0-3.71,1.88A9.35,9.35,0,0,1,3.83,17.48Z"/><path class="cls-1" d="M7.16,32.24A1.13,1.13,0,0,0,5,32.75c2,8.56,8.22,15.08,19.17,19.94a1.06,1.06,0,0,0,.46.1,1.16,1.16,0,0,0,1-.68A1.13,1.13,0,0,0,25,50.62C18.5,47.71,9.54,42.65,7.16,32.24Z"/></g></svg>
