<?xml version="1.0" encoding="utf-8"?>
<!-- Generator: Adobe Illustrator 25.0.1, SVG Export Plug-In . SVG Version: 6.00 Build 0)  -->
<svg version="1.1" id="Layer_1" xmlns="http://www.w3.org/2000/svg" xmlns:xlink="http://www.w3.org/1999/xlink" x="0px" y="0px"
	 viewBox="0 0 85 110" style="enable-background:new 0 0 85 110;" xml:space="preserve">
<style type="text/css">
	.st0{fill:#CCCCCC;}
	.st1{fill:#009ADE;}
	.st2{fill:#FFFFFF;}
	.st3{fill:#02BF68;}
	.st4{fill:#414042;}
	.st5{fill:#F9A825;}
	.st6{fill:#FF7676;}
</style>
<symbol  id="New_Symbol" viewBox="-34 -3 69.4 6">
	<rect x="-34" y="-3" class="st0" width="36" height="4"/>
	<path class="st1" d="M35.4,3H-34V1h68.1C34.3,1.8,34.8,2.5,35.4,3z"/>
</symbol>
<rect class="st2" width="85" height="110"/>
<path class="st0" d="M83,2v106H2V2H83 M85,0H0v110h85V0L85,0z"/>
<g>
	<rect x="8" y="17" class="st1" width="72" height="2"/>
	<rect x="8" y="21" class="st0" width="72" height="2"/>
	<circle class="st1" cx="6" cy="18" r="1"/>
	<circle class="st0" cx="6" cy="22" r="1"/>
	<rect x="8" y="25" class="st0" width="72" height="2"/>
	<circle class="st0" cx="6" cy="26" r="1"/>
</g>
<g>
	<rect x="5" y="95" class="st1" width="75" height="2"/>
	<rect x="5" y="99" class="st0" width="75" height="2"/>
	<rect x="5" y="103" class="st0" width="75" height="2"/>
</g>
<g>
	<rect x="5" y="59" class="st0" width="36" height="6"/>
	<rect x="44" y="59" class="st0" width="36" height="6"/>
</g>
<g>
	
		<use xlink:href="#New_Symbol"  width="69.4" height="6" id="XMLID_2_" x="-34" y="-3" transform="matrix(1 0 0 -1 39 34)" style="overflow:visible;"/>
	<g transform="translate(73 42)">
		<circle class="st3" cx="4" cy="-8" r="3"/>
		<g transform="translate(1.75 .75) rotate(45 1.25 2)">
			
				<rect x="-6.3" y="-6.2" transform="matrix(2.535182e-06 1 -1 2.535182e-06 -10.8063 0.8358)" class="st4" width="1" height="2.5"/>
			<rect x="-7.1" y="-7" transform="matrix(2.535182e-06 1 -1 2.535182e-06 -11.5563 -1.4142)" class="st4" width="4" height="1"/>
		</g>
	</g>
</g>
<g>
	<g transform="translate(73 54)">
		<circle class="st5" cx="4" cy="-12" r="3"/>
		<rect x="2.5" y="-12.5" class="st4" width="3" height="1"/>
	</g>
	
		<use xlink:href="#New_Symbol"  width="69.4" height="6" id="XMLID_1_" x="-34" y="-3" transform="matrix(1 0 0 -1 39 42)" style="overflow:visible;"/>
</g>
<g>
	<g transform="translate(73 66)">
		<circle class="st6" cx="4" cy="-16" r="3"/>
		<g transform="translate(1 2.5)">
			<rect x="2.5" y="-20.5" transform="matrix(0.7071 -0.7071 0.7071 0.7071 13.9602 -3.2972)" class="st4" width="1" height="4"/>
			<rect x="1" y="-19" transform="matrix(0.7071 -0.7071 0.7071 0.7071 13.9602 -3.2972)" class="st4" width="4" height="1"/>
		</g>
	</g>
	
		<use xlink:href="#New_Symbol"  width="69.4" height="6" id="XMLID_3_" x="-34" y="-3" transform="matrix(1 0 0 -1 39 50)" style="overflow:visible;"/>
</g>
<g id="logo">
	<path class="st4" d="M21.1,10.2c-0.2,2-2.1,3.7-4.4,3.7c-2.4,0-4.3-1.8-4.3-4.3s1.9-4.3,4.3-4.3c1.5,0,3,0.8,3.8,2H20
		c-0.8-1.1-2-1.7-3.4-1.7c-2.2,0-4,1.7-4,4s1.8,4,4,4c2.1,0,3.7-1.5,4-3.1h-5v-0.3L21.1,10.2"/>
	<path class="st4" d="M27.1,5.4v0.3h-4.2v3.7h4.2v0.3h-4.2v3.7h4.2v0.3h-4.6V5.4H27.1"/>
	<path class="st4" d="M35,13.3L35,13.3l0-7.9h0.3v8.3h-0.4l-5.8-8h0v8h-0.3V5.4h0.5L35,13.3"/>
	<path class="st4" d="M41.8,5.4v0.3h-4.2v3.7h4.2v0.3h-4.2v3.7h4.2v0.3h-4.6V5.4H41.8"/>
	<path class="st4" d="M47.6,5.4v0.3h-2.3v8H45v-8h-2.3V5.4H47.6"/>
	<path class="st4" d="M48.7,13.7H49V5.4h-0.3V13.7z"/>
	<path class="st1" d="M58.4,11.9c-0.6,1-1.9,2-3.6,2c-2.4,0-4.3-1.8-4.3-4.3s1.9-4.3,4.3-4.3c1.8,0,3,1.1,3.7,2h-0.4
		c-0.3-0.4-1.4-1.7-3.3-1.7c-2.2,0-4,1.7-4,4s1.8,4,4,4c2,0,3-1.3,3.3-1.7H58.4"/>
	<path class="st1" d="M59.9,5.4h0.3v5.4c0,0.8,0,1.3,0.5,2c0.4,0.5,1,0.8,1.7,0.8c0.6,0,1.3-0.3,1.7-0.8c0.5-0.7,0.5-1.2,0.5-2V5.4
		H65v5.4c0,0.8,0,1.9-1,2.6c-0.4,0.3-1,0.5-1.5,0.5c-0.6,0-1.1-0.2-1.5-0.5c-1-0.7-1-1.8-1-2.6L59.9,5.4"/>
	<path class="st1" d="M68.6,5.4c1.3,0,1.8,0.1,2.2,0.3C71.5,6.1,72,7,72,8c0.1,1-0.6,2.6-2.4,2.6l-0.3,0l2.2,3.1h-0.4l-2.4-3.4h0.5
		c0.8,0,1.3-0.1,1.8-0.5c0.5-0.6,0.7-1.1,0.7-1.8c0-0.7-0.3-1.5-1-1.9c-0.5-0.3-1.1-0.3-2.1-0.3H67v8h-0.3V5.4L68.6,5.4"/>
	<path class="st1" d="M77.8,5.4v0.3h-4.2v3.7h4.2v0.3h-4.2v3.7h4.2v0.3h-4.6V5.4H77.8"/>
	<g>
		<path class="st4" d="M7.7,5.4H6.2C5.5,5.4,5,5.9,5,6.6s0.5,1.2,1.2,1.2h1.5V5.4"/>
		<path class="st1" d="M8,7.8h1.5c0.7,0,1.2-0.5,1.2-1.2s-0.5-1.2-1.2-1.2H8V7.8"/>
		<path class="st4" d="M7.7,11.4H6.2c-0.7,0-1.2,0.5-1.2,1.2s0.5,1.2,1.2,1.2h1.5V11.4"/>
		<path class="st1" d="M8,13.7h1.5c0.7,0,1.2-0.5,1.2-1.2s-0.5-1.2-1.2-1.2H8V13.7"/>
		<path class="st4" d="M8,8.4h1.5c0.7,0,1.2,0.5,1.2,1.2s-0.5,1.2-1.2,1.2H8V8.4"/>
		<path class="st1" d="M7.7,10.8H6.2C5.5,10.8,5,10.2,5,9.6s0.5-1.2,1.2-1.2h1.5V10.8"/>
	</g>
	<path class="st4" d="M79,5.7v0.4h0.3c0.1,0,0.3,0,0.3-0.2c0-0.2-0.2-0.2-0.2-0.2H79z M79.3,5.7c0.1,0,0.3,0,0.3,0.2
		c0,0.1-0.1,0.2-0.2,0.2l0,0c0.1,0,0.1,0.1,0.2,0.2c0,0.2,0,0.2,0,0.2h-0.1c0,0,0,0,0-0.2c0-0.1,0-0.2-0.3-0.2H79v0.4h-0.1V5.7H79.3
		L79.3,5.7z M78.6,6.1c0,0.4,0.3,0.7,0.7,0.7s0.7-0.3,0.7-0.7c0-0.4-0.3-0.7-0.7-0.7C78.8,5.4,78.6,5.7,78.6,6.1z M80,6.1
		c0,0.4-0.3,0.8-0.8,0.8s-0.8-0.3-0.8-0.8c0-0.4,0.3-0.7,0.8-0.7C79.7,5.3,80,5.7,80,6.1"/>
</g>
<rect x="5" y="68" class="st0" width="75" height="21"/>
</svg>
