<?xml version="1.0" encoding="utf-8"?>
<!-- Generator: Adobe Illustrator 25.2.1, SVG Export Plug-In . SVG Version: 6.00 Build 0)  -->
<svg version="1.1" id="Layer_1" xmlns="http://www.w3.org/2000/svg" xmlns:xlink="http://www.w3.org/1999/xlink" x="0px" y="0px"
	 viewBox="0 0 85 110" style="enable-background:new 0 0 85 110;" xml:space="preserve">
<style type="text/css">
	.st0{fill:#CCCCCC;}
	.st1{fill:#009ADE;}
	.st2{fill:#FFFFFF;}
	.st3{fill:#02BF68;}
	.st4{fill:#414042;}
	.st5{fill:#F9A825;}
	.st6{fill:#FF7676;}
</style>
<symbol  id="New_Symbol" viewBox="-34.7 -3 69.4 6">
	<rect x="-34.7" y="-3" class="st0" width="36" height="4"/>
	<path class="st1" d="M34.7,3h-69.4V1h68.1C33.6,1.8,34.1,2.5,34.7,3z"/>
</symbol>
<rect class="st2" width="85" height="110"/>
<path class="st0" d="M83,2v106H2V2H83 M85,0H0v110h85V0L85,0z"/>
<g>
	<rect x="8" y="17" class="st1" width="72" height="2"/>
	<rect x="8" y="21" class="st0" width="72" height="2"/>
	<circle class="st1" cx="6" cy="18" r="1"/>
	<circle class="st0" cx="6" cy="22" r="1"/>
	<rect x="8" y="25" class="st0" width="72" height="2"/>
	<circle class="st0" cx="6" cy="26" r="1"/>
</g>
<g>
	<rect x="5" y="95" class="st1" width="75" height="2"/>
	<rect x="5" y="99" class="st0" width="75" height="2"/>
	<rect x="5" y="103" class="st0" width="75" height="2"/>
</g>
<g>
	<rect x="5" y="59" class="st0" width="36" height="6"/>
	<rect x="44" y="59" class="st0" width="36" height="6"/>
</g>
<g>
	<g>
		<defs>
			<rect id="SVGID_1_" x="5" y="31" width="69.4" height="6"/>
		</defs>
		<clipPath id="SVGID_2_">
			<use xlink:href="#SVGID_1_"  style="overflow:visible;"/>
		</clipPath>
		<g style="clip-path:url(#SVGID_2_);">
			
				<use xlink:href="#New_Symbol"  width="69.4" height="6" id="XMLID_2_" x="-34.7" y="-3" transform="matrix(1 0 0 -1 39.7 34)" style="overflow:visible;"/>
		</g>
	</g>
	<g transform="translate(73 42)">
		<circle class="st3" cx="4" cy="-8" r="3"/>
		<g transform="translate(1.75 .75) rotate(45 1.25 2)">
			
				<rect x="-6.356" y="-6.214" transform="matrix(5.070362e-06 1 -1 5.070362e-06 -10.8205 0.8921)" class="st4" width="1" height="2.5"/>
			
				<rect x="-7.056" y="-7.014" transform="matrix(5.070363e-06 1 -1 5.070363e-06 -11.5705 -1.4579)" class="st4" width="4" height="1"/>
		</g>
	</g>
</g>
<g>
	<g transform="translate(73 54)">
		<circle class="st5" cx="4" cy="-12" r="3"/>
		<rect x="2.5" y="-12.5" class="st4" width="3" height="1"/>
	</g>
	<g>
		<defs>
			<rect id="SVGID_3_" x="5" y="39" width="69.4" height="6"/>
		</defs>
		<clipPath id="SVGID_4_">
			<use xlink:href="#SVGID_3_"  style="overflow:visible;"/>
		</clipPath>
		<g style="clip-path:url(#SVGID_4_);">
			
				<use xlink:href="#New_Symbol"  width="69.4" height="6" id="XMLID_1_" x="-34.7" y="-3" transform="matrix(1 0 0 -1 39.7 42)" style="overflow:visible;"/>
		</g>
	</g>
</g>
<g>
	<g transform="translate(73 66)">
		<circle class="st6" cx="4" cy="-16" r="3"/>
		<g transform="translate(1 2.5)">
			<rect x="2.5" y="-20.5" transform="matrix(0.7071 -0.7071 0.7071 0.7071 13.9601 -3.2971)" class="st4" width="1" height="4"/>
			<rect x="1" y="-19" transform="matrix(0.7071 -0.7071 0.7071 0.7071 13.9601 -3.2971)" class="st4" width="4" height="1"/>
		</g>
	</g>
	<g>
		<defs>
			<rect id="SVGID_5_" x="5" y="47" width="69.4" height="6"/>
		</defs>
		<clipPath id="SVGID_6_">
			<use xlink:href="#SVGID_5_"  style="overflow:visible;"/>
		</clipPath>
		<g style="clip-path:url(#SVGID_6_);">
			
				<use xlink:href="#New_Symbol"  width="69.4" height="6" id="XMLID_3_" x="-34.7" y="-3" transform="matrix(1 0 0 -1 39.7 50)" style="overflow:visible;"/>
		</g>
	</g>
</g>
<rect x="5" y="68" class="st0" width="75" height="21"/>
<g transform="matrix(0.79309574,0,0,-0.79309574,10,30.307526)">
	<path class="st4" d="M14.003,25.661c-0.298-2.541-2.656-4.63-5.595-4.63c-3.011,0-5.453,2.287-5.453,5.44s2.442,5.439,5.453,5.439
		c1.931,0,3.82-0.951,4.772-2.514h-0.511c-1.051,1.378-2.542,2.13-4.26,2.13c-2.784,0-5.027-2.144-5.027-5.056
		c0-2.911,2.244-5.056,5.027-5.056c2.67,0,4.7,1.903,5.084,3.863H7.229v0.384L14.003,25.661"/>
	<path class="st4" d="M21.517,31.725v-0.384h-5.34v-4.644h5.34v-0.384h-5.34v-4.714h5.34v-0.384h-5.765v10.509H21.517"/>
	<path class="st4" d="M31.53,21.784h0.028v9.941h0.426V21.217h-0.54l-7.299,10.082h-0.028V21.217h-0.426v10.509h0.639L31.53,21.784"
		/>
	<path class="st4" d="M40.109,31.725v-0.384h-5.34v-4.644h5.34v-0.384h-5.34v-4.714h5.34v-0.384h-5.766v10.509H40.109"/>
	<path class="st4" d="M47.395,31.725v-0.384H44.54V21.217h-0.426v10.125H41.26v0.384H47.395"/>
	<path class="st4" d="M48.745,21.217h0.426v10.509h-0.426V21.217z"/>
	<path class="st1" d="M61.072,23.503c-0.71-1.207-2.386-2.472-4.587-2.472c-3.011,0-5.453,2.287-5.453,5.44s2.443,5.439,5.453,5.439
		c2.244-0.014,3.834-1.335,4.602-2.527h-0.497c-0.397,0.554-1.775,2.13-4.104,2.144c-2.783,0-5.027-2.144-5.027-5.056
		c0-2.911,2.244-5.056,5.027-5.056c2.457,0,3.806,1.676,4.104,2.088H61.072"/>
	<path class="st1" d="M62.863,31.725h0.426v-6.816c0-1.023,0-1.676,0.653-2.528c0.454-0.597,1.32-0.966,2.158-0.966
		c0.796,0,1.662,0.37,2.116,0.966c0.653,0.851,0.653,1.504,0.653,2.528v6.817h0.426v-6.817c0.015-0.951-0.028-2.372-1.263-3.238
		c-0.54-0.398-1.235-0.64-1.96-0.64c-0.711,0-1.407,0.242-1.946,0.64c-1.236,0.866-1.278,2.286-1.263,3.238L62.863,31.725"/>
	<path class="st1" d="M73.899,31.725c1.632,0,2.286-0.142,2.797-0.44c0.852-0.426,1.519-1.576,1.519-2.798
		c0.058-1.307-0.809-3.28-3.095-3.295l-0.412-0.014l2.827-3.962h-0.54l-3.082,4.345h0.653c0.994,0,1.634,0.085,2.329,0.668
		c0.667,0.696,0.895,1.42,0.895,2.244c0,0.909-0.441,1.917-1.25,2.442c-0.639,0.412-1.406,0.426-2.641,0.426h-1.975V21.216h-0.426
		v10.509L73.899,31.725"/>
	<path class="st1" d="M85.445,31.725v-0.384h-5.34v-4.644h5.34v-0.384h-5.34v-4.714h5.34v-0.384h-5.766v10.509H85.445"/>
	<g>
		<path class="st4" d="M-2.891,31.714h-1.906c-0.833,0-1.507-0.675-1.507-1.507c0-0.833,0.675-1.508,1.507-1.508h1.906V31.714"/>
		<path class="st1" d="M-2.51,28.699h1.906c0.833,0,1.507,0.675,1.507,1.507c0,0.833-0.675,1.508-1.507,1.508H-2.51V28.699"/>
		<path class="st4" d="M-2.891,24.226h-1.906c-0.833,0-1.507-0.675-1.507-1.507c0-0.833,0.675-1.508,1.507-1.508h1.906V24.226"/>
		<path class="st1" d="M-2.51,21.211h1.906c0.833,0,1.507,0.675,1.507,1.507c0,0.834-0.675,1.508-1.507,1.508H-2.51V21.211"/>
		<path class="st4" d="M-2.51,27.97h1.907c0.832,0,1.507-0.675,1.507-1.507c0-0.833-0.675-1.508-1.507-1.508H-2.51V27.97"/>
		<path class="st1" d="M-2.89,24.955h-1.907c-0.832,0-1.507,0.675-1.507,1.507c0,0.833,0.675,1.508,1.507,1.508h1.907V24.955"/>
	</g>
	<path class="st4" d="M86.984,31.328v-0.468h0.345c0.079,0.01,0.35,0.005,0.35,0.239c0,0.229-0.239,0.229-0.321,0.229H86.984z
		 M87.372,31.392c0.064,0,0.377,0,0.377-0.294c0-0.146-0.096-0.234-0.212-0.266v-0.005c0.155-0.037,0.182-0.131,0.189-0.246
		c0.015-0.22,0.015-0.242,0.037-0.281h-0.072c-0.017,0.027-0.017,0.044-0.029,0.246c-0.011,0.153-0.025,0.249-0.328,0.249h-0.35
		v-0.496h-0.069v1.092L87.372,31.392L87.372,31.392z M86.449,30.852c0-0.491,0.379-0.875,0.873-0.875c0.486,0,0.87,0.38,0.87,0.875
		c0,0.478-0.365,0.875-0.87,0.875C86.814,31.727,86.449,31.328,86.449,30.852z M88.262,30.852c0-0.535-0.419-0.94-0.94-0.94
		c-0.527,0-0.942,0.4-0.942,0.94c0,0.515,0.397,0.939,0.942,0.939C87.859,31.791,88.262,31.372,88.262,30.852"/>
</g>
</svg>
