<svg id="object" xmlns="http://www.w3.org/2000/svg" xmlns:xlink="http://www.w3.org/1999/xlink" viewBox="0 0 100 80"><defs><style>.cls-1{fill:#929292;}.cls-2{fill:#333;}.cls-3{fill:url(#radial-gradient);}.cls-4{fill:url(#linear-gradient);}.cls-5{fill:url(#linear-gradient-2);}.cls-6{fill:url(#linear-gradient-3);}</style><radialGradient id="radial-gradient" cx="50" cy="66.96" r="61.43" gradientTransform="translate(0 65.85) scale(1 0.02)" gradientUnits="userSpaceOnUse"><stop offset="0" stop-color="gray" stop-opacity="0.7"/><stop offset="0.16" stop-color="#818181" stop-opacity="0.66"/><stop offset="0.34" stop-color="#868686" stop-opacity="0.55"/><stop offset="0.52" stop-color="#8d8d8d" stop-opacity="0.37"/><stop offset="0.65" stop-color="#939393" stop-opacity="0.2"/><stop offset="0.72" stop-color="#9f9f9f" stop-opacity="0"/></radialGradient><linearGradient id="linear-gradient" x1="50" y1="66.97" x2="50" y2="65.66" gradientUnits="userSpaceOnUse"><stop offset="0" stop-color="gray"/><stop offset="0.74" stop-color="#b9b9b9"/><stop offset="0.85" stop-color="#b6b6b6"/><stop offset="0.94" stop-color="#acacac"/><stop offset="1" stop-color="#9f9f9f"/></linearGradient><linearGradient id="linear-gradient-2" x1="1" y1="64.88" x2="99" y2="64.88" gradientUnits="userSpaceOnUse"><stop offset="0" stop-color="#666"/><stop offset="0.01" stop-color="#d5d5d5"/><stop offset="0.97" stop-color="#dfdfdf"/><stop offset="1" stop-color="#acacac"/></linearGradient><linearGradient id="linear-gradient-3" x1="43.03" y1="64.67" x2="56.97" y2="64.67" gradientUnits="userSpaceOnUse"><stop offset="0" stop-color="#9f9f9f"/><stop offset="0.04" stop-color="#acacac"/><stop offset="0.51" stop-color="#e5e5e5"/><stop offset="0.96" stop-color="#acacac"/><stop offset="1" stop-color="#9f9f9f"/></linearGradient></defs><g id="Screen"><g id="Black"><path d="M89.36,62.7V13.87a2.05,2.05,0,0,0-2.06-2H12.7a2.06,2.06,0,0,0-2.07,2V62.7h0v1.4H89.37V62.7ZM87,61H13V15H87Z"/></g><path id="Edge" class="cls-1" d="M87.3,11.82a2.06,2.06,0,0,1,2.07,2V62.7h0v1.4H10.64V62.7h0V13.87a2.06,2.06,0,0,1,2.07-2H87.3m0-.36H12.7a2.42,2.42,0,0,0-2.43,2.41V64.46H89.73V13.87a2.42,2.42,0,0,0-2.43-2.41Z"/><rect id="Bar" class="cls-2" x="10.64" y="62.7" width="78.73" height="1.4"/></g><path id="Shadow" class="cls-3" d="M136.81,66.88c0,1.82-31.08,3.37-87.68,3.37S-36.81,68.78-36.81,67s29.33-3.29,85.94-3.29S136.81,65.07,136.81,66.88Z"/><path id="Bottom" class="cls-4" d="M1,65.66A43.55,43.55,0,0,0,11.64,67H88.36A43.55,43.55,0,0,0,99,65.66H1Z"/><rect id="Base" class="cls-5" x="1" y="64.11" width="98" height="1.56"/><path id="Fingerhole" class="cls-6" d="M57,64.11a1.12,1.12,0,0,1-.33.8,1.14,1.14,0,0,1-.8.33H44.16A1.13,1.13,0,0,1,43,64.11Z"/></svg>