<svg xmlns="http://www.w3.org/2000/svg" x="0px" y="0px" viewBox="0 0 225 30">
	 <style>
		.color--lowlight {
			fill: #414042;
		}

		.color--highlight {
			fill: #009ADE;
		}
	 </style>
	<g transform="matrix(0.79309574,0,0,-0.79309574,10,30.307526)">
		<path class="color--lowlight" d="M49.481,17.363C48.606,9.908,41.69,3.782,33.069,3.782c-8.832,0-15.996,6.708-15.996,15.956 s7.164,15.954,15.996,15.954c5.665,0,11.205-2.791,13.997-7.373h-1.5c-3.083,4.041-7.457,6.248-12.497,6.248 c-8.165,0-14.747-6.29-14.747-14.83c0-8.539,6.582-14.831,14.747-14.831c7.831,0,13.788,5.583,14.913,11.331H29.61v1.125H49.481"/>
		<path class="color--lowlight" d="M71.522,35.151v-1.125H55.859V20.405h15.663V19.28H55.859V5.452h15.663V4.326H54.61v30.825 H71.522"/>
		<path class="color--lowlight" d="M100.893,5.991h0.083v29.16h1.25V4.326h-1.583L79.232,33.901h-0.083V4.326h-1.25v30.825h1.875 L100.893,5.991"/>
		<path class="color--lowlight" d="M126.058,35.151v-1.125h-15.663V20.405h15.663V19.28h-15.663V5.452h15.663V4.326h-16.913 v30.825H126.058"/>
		<path class="color--lowlight" d="M147.431,35.151v-1.125h-8.373v-29.7h-1.25v29.7h-8.374v1.125H147.431"/>
		<path class="color--lowlight" d="M151.392,4.326h1.249v30.825h-1.249V4.326z"/>
		<path class="color--highlight" d="M187.55,11.032c-2.082-3.54-6.998-7.25-13.455-7.25c-8.831,0-15.996,6.708-15.996,15.956 s7.165,15.954,15.996,15.954c6.581-0.041,11.247-3.916,13.498-7.414h-1.459c-1.166,1.624-5.207,6.248-12.039,6.29 c-8.164,0-14.746-6.29-14.746-14.83c0-8.539,6.583-14.831,14.746-14.831c7.207,0,11.163,4.915,12.039,6.125H187.55"/>
		<path class="color--highlight" d="M192.804,35.151h1.25V15.156c0-3.001,0-4.917,1.916-7.414c1.332-1.751,3.873-2.835,6.33-2.835 c2.335,0,4.875,1.084,6.207,2.835c1.916,2.497,1.916,4.413,1.916,7.414v19.996h1.25V15.156c0.043-2.791-0.081-6.957-3.706-9.497 c-1.583-1.167-3.624-1.877-5.748-1.877c-2.085,0-4.126,0.709-5.708,1.877c-3.625,2.54-3.749,6.706-3.706,9.497V35.151"/>
		<path class="color--highlight" d="M225.176,35.151c4.787,0,6.706-0.417,8.204-1.291c2.5-1.25,4.456-4.624,4.456-8.207 c0.169-3.833-2.372-9.622-9.08-9.664l-1.209-0.042l8.292-11.621h-1.583l-9.04,12.745h1.916c2.917,0,4.792,0.25,6.833,1.959 c1.957,2.041,2.625,4.165,2.625,6.581c0,2.666-1.293,5.624-3.666,7.164c-1.875,1.208-4.125,1.25-7.747,1.25h-5.792v-29.7h-1.25 v30.825H225.176"/>
		<path class="color--highlight" d="M259.045,35.151v-1.125H243.38V20.405h15.665V19.28H243.38V5.452h15.665V4.326h-16.914v30.825 H259.045"/>
		<path class="color--lowlight" d="M-0.073,35.118h-5.592c-2.443,0-4.422-1.98-4.422-4.422c0-2.444,1.979-4.424,4.422-4.424h5.592 V35.118"/>
		<path class="color--highlight" d="M1.042,26.273h5.592c2.443,0,4.422,1.98,4.422,4.422c0,2.443-1.979,4.423-4.422,4.423H1.042 V26.273"/>
		<path class="color--lowlight" d="M-0.073,13.154h-5.592c-2.443,0-4.422-1.979-4.422-4.422s1.979-4.423,4.422-4.423h5.592V13.154"/>
		<path class="color--highlight" d="M1.042,4.309h5.592c2.443,0,4.422,1.98,4.422,4.42c0,2.445-1.979,4.424-4.422,4.424H1.042 V4.309"/>
		<path class="color--lowlight" d="M1.042,24.136h5.594c2.441,0,4.422-1.981,4.422-4.422c0-2.443-1.981-4.424-4.422-4.424H1.042 V24.136"/>
		<path class="color--highlight" d="M-0.071,15.29h-5.594c-2.441,0-4.422,1.981-4.422,4.422c0,2.443,1.981,4.424,4.422,4.424h5.594 V15.29"/>
		<path class="color--lowlight" d="M263.56,33.984V32.61h1.013c0.232,0.029,1.027,0.015,1.027,0.702 c0,0.672-0.702,0.672-0.941,0.672H263.56z M264.696,34.172c0.187,0,1.106,0,1.106-0.861c0-0.427-0.283-0.687-0.621-0.781v-0.015 c0.454-0.108,0.534-0.384,0.555-0.723c0.043-0.644,0.043-0.709,0.11-0.824h-0.211c-0.05,0.079-0.05,0.13-0.086,0.723 c-0.031,0.448-0.073,0.731-0.962,0.731h-1.028v-1.454h-0.203v3.204H264.696L264.696,34.172z M261.99,32.588 c0-1.439,1.113-2.568,2.561-2.568c1.425,0,2.553,1.114,2.553,2.568c0,1.403-1.07,2.567-2.553,2.567 C263.061,35.156,261.99,33.984,261.99,32.588z M267.307,32.588c0-1.57-1.23-2.756-2.756-2.756c-1.547,0-2.763,1.172-2.763,2.756 c0,1.511,1.165,2.755,2.763,2.755C266.127,35.343,267.307,34.115,267.307,32.588"/>
	</g>
</svg>
