<svg xmlns="http://www.w3.org/2000/svg" xmlns:xlink="http://www.w3.org/1999/xlink" viewBox="0 0 52.49 60.1"><style>path{fill:#009ADE}</style><g><path d="M6.42,60.1a1,1,0,0,1-.87-.47c-1.71-2.56-1.34-6.16-1-9.65.45-4.33.87-8.42-2.14-10.72A1,1,0,0,1,2,38.38a1,1,0,0,1,.48-.84c2.14-1.36,1.71-3.54.74-6.95a21.72,21.72,0,0,1-.69-2.88.57.57,0,0,1,0-.13,118.37,118.37,0,0,0-1.4-13.74C.72,10.86.28,7.77,0,4.68A1.06,1.06,0,0,1,.77,3.57c1.52-.42,3.64-.17,5.89.09,2.64.3,5.64.65,6.73-.33A1.63,1.63,0,0,0,13.86,2a1.94,1.94,0,0,1,1.65-2,1.81,1.81,0,0,1,1.91,1.46.45.45,0,0,1,0,.16c.41,4.4,1.05,4.6,3.73,5.45.8.25,1.71.54,2.79,1a4.23,4.23,0,0,0,2.46-.32c1.79-.57,4.24-1.35,6.9,2.43a2.07,2.07,0,0,0,.18.27h0c1.21-.55,2.74-.89,5.64,2,.31.28.6.25,1.86-.59.91-.62,2-1.38,3.23-.73a1,1,0,0,1,.36.33c.25.36.71.37,1.9.2a7.48,7.48,0,0,1,1.83-.1,3.53,3.53,0,0,1,1.7.61c.58.34.64.34.91.2a1,1,0,0,1,1,1.83A48,48,0,0,0,37.8,25.7a1.08,1.08,0,0,1-.28.24c-2.22,1.34-2.42,3.47-2,6.49a.88.88,0,0,1,0,.28,4.35,4.35,0,0,1-2.19,2.88c-.89.63-1.44,1.06-1.56,1.8a1.42,1.42,0,0,1-.11.33c-.15.26-.15.26.34.74a2.54,2.54,0,0,1,.76,3.23c-1.12,4.71,0,5.43,3.07,7.32.78.48,1.67,1,2.63,1.73a1.29,1.29,0,0,1,.18.16l.24.29a7.18,7.18,0,0,0,2.54,2.23c1.63.43,3,2.95,2.77,4.6a2,2,0,0,1-2,1.83h0c-4.62,0-9.27.06-13.92.08C21,60,13.68,60,6.43,60.1ZM4.68,38.47c2.87,3.07,2.4,7.64,2,11.72-.31,3-.6,5.86.36,7.8,7.05-.09,14.21-.13,21.14-.16q7,0,13.92-.08a2.72,2.72,0,0,0-.34-1.24,2.14,2.14,0,0,0-.89-1.06l-.16-.05a8.84,8.84,0,0,1-3.44-2.85l-.16-.19c-.86-.61-1.67-1.12-2.4-1.57-3.19-2-5.5-3.42-4-9.72a1.33,1.33,0,0,1,.1-.28c.19-.33.19-.33-.32-.83a2.51,2.51,0,0,1-.8-3.09,5,5,0,0,1,2.38-3c.72-.52,1.19-.87,1.31-1.34-.37-3-.28-6.29,2.89-8.3A48.73,48.73,0,0,1,48.56,13.71a.91.91,0,0,0-.33-.09h-.12a5.36,5.36,0,0,0-1.32.09c-1.11.16-2.61.37-3.64-.74a7.61,7.61,0,0,0-1,.6c-1,.71-2.81,1.88-4.47.38-2.16-2.12-2.83-1.81-3.32-1.59-.87.39-1.87.57-2.82-1-1.73-2.45-2.83-2.1-4.5-1.57a6.08,6.08,0,0,1-3.8.3c-1.09-.45-2-.72-2.72-1-2.8-.88-4.26-1.52-4.94-5.31a3.13,3.13,0,0,1-.82,1.12C13,6.5,9.65,6.12,6.42,5.74a27.77,27.77,0,0,0-4.23-.28c.27,2.72.66,5.44,1,8.08A118.19,118.19,0,0,1,4.63,27.46,24.79,24.79,0,0,0,5.26,30C6.05,32.78,7,36.14,4.68,38.47Z"/><path d="M25.38,45.75l-.11-.09C23,43.77,22.32,43.1,22.32,42a1.61,1.61,0,0,1,1.62-1.62,1.87,1.87,0,0,1,1.44.74,1.83,1.83,0,0,1,1.43-.74A1.61,1.61,0,0,1,28.43,42c0,1.08-.63,1.75-2.95,3.64Z"/></g></svg>
