<svg xmlns="http://www.w3.org/2000/svg" viewBox="0 0 52.49 60.1"><style>.cls-1{fill:#009ADE;}.cls-2{fill:#fff;}</style><g><path class="cls-1" d="M6.42,60.1a1,1,0,0,1-.87-.47c-1.71-2.56-1.34-6.16-1-9.65.45-4.33.87-8.42-2.14-10.72A1,1,0,0,1,2,38.38a1,1,0,0,1,.48-.84c2.14-1.36,1.71-3.54.74-6.95a21.72,21.72,0,0,1-.69-2.88.57.57,0,0,1,0-.13,118.37,118.37,0,0,0-1.4-13.74C.72,10.86.28,7.77,0,4.68A1.06,1.06,0,0,1,.77,3.57c1.52-.42,3.64-.17,5.89.09,2.64.3,5.64.65,6.73-.33A1.63,1.63,0,0,0,13.86,2a1.94,1.94,0,0,1,1.65-2,1.81,1.81,0,0,1,1.91,1.46.45.45,0,0,1,0,.16c.41,4.4,1.05,4.6,3.73,5.45.8.25,1.71.54,2.79,1a4.23,4.23,0,0,0,2.46-.32c1.79-.57,4.24-1.35,6.9,2.43a2.07,2.07,0,0,0,.18.27h0c1.21-.55,2.74-.89,5.64,2,.31.28.6.25,1.86-.59.91-.62,2-1.38,3.23-.73a1,1,0,0,1,.36.33c.25.36.71.37,1.9.2a7.48,7.48,0,0,1,1.83-.1,3.53,3.53,0,0,1,1.7.61c.58.34.64.34.91.2a1,1,0,0,1,1,1.83A48,48,0,0,0,37.8,25.7a1.08,1.08,0,0,1-.28.24c-2.22,1.34-2.42,3.47-2,6.49a.88.88,0,0,1,0,.28,4.35,4.35,0,0,1-2.19,2.88c-.89.63-1.44,1.06-1.56,1.8a1.42,1.42,0,0,1-.11.33c-.15.26-.15.26.34.74a2.54,2.54,0,0,1,.76,3.23c-1.12,4.71,0,5.43,3.07,7.32.78.48,1.67,1,2.63,1.73a1.29,1.29,0,0,1,.18.16l.24.29a7.18,7.18,0,0,0,2.54,2.23c1.63.43,3,2.95,2.77,4.6a2,2,0,0,1-2,1.83h0c-4.62,0-9.27.06-13.92.08C21,60,13.68,60,6.43,60.1Z"/><path class="cls-2" d="M25.38,45.75l-.11-.09C23,43.77,22.32,43.1,22.32,42a1.61,1.61,0,0,1,1.62-1.62,1.87,1.87,0,0,1,1.44.74,1.83,1.83,0,0,1,1.43-.74A1.61,1.61,0,0,1,28.43,42c0,1.08-.63,1.75-2.95,3.64Z"/></g></svg>
