<svg xmlns="http://www.w3.org/2000/svg" viewBox="0 0 69.14 60"><style>path{fill:#009ADE}</style><g><path d="M51.49,6.53c-6.9,0-10.7,3.83-10.7,10.79A10.45,10.45,0,0,0,42,21.79a10.33,10.33,0,0,1,1.17,4.54,4.66,4.66,0,0,1-1,2.68A.76.76,0,0,0,42,29a4.25,4.25,0,0,1-2.94-.67,3,3,0,0,1-.88-2.43V21.43a1.13,1.13,0,0,0-1.13-1.12,1.14,1.14,0,0,0-1.13,1.12V25.9A5.17,5.17,0,0,0,37.62,30,5.7,5.7,0,0,0,41,31.28a3.88,3.88,0,0,0-.21,1.21c0,.15,0,.29,0,.43a5.58,5.58,0,0,0-3.2,1.22,5.13,5.13,0,0,0-1.68,4.14V58.87a1.13,1.13,0,0,0,2.26,0V38.28a3,3,0,0,1,.88-2.42,3.88,3.88,0,0,1,2.63-.71c.2.31.41.6.61.88a4.7,4.7,0,0,1,1.23,2.63,3,3,0,0,1-.13.81s0,0,0,0,0,0,0,0a11.71,11.71,0,0,1-1,2.17,10.22,10.22,0,0,0-1.62,4.88c0,7.12,5.53,11.9,10.7,11.9,9.24,0,17.65-12.38,17.65-26S60.73,6.53,51.49,6.53Zm0,49.67c-4.08,0-8.44-3.87-8.44-9.64a8.13,8.13,0,0,1,1.35-3.8,14.51,14.51,0,0,0,1.16-2.54,4.62,4.62,0,0,1,3.69-2.76,1.13,1.13,0,0,0,1-1.25,1.14,1.14,0,0,0-1.26-1,6.87,6.87,0,0,0-3.57,1.55,10.57,10.57,0,0,0-1.26-2.07,4.24,4.24,0,0,1-1.1-2.21,4,4,0,0,1,.88-2,8.82,8.82,0,0,0,1.28-2.61,5.51,5.51,0,0,0,2.32,1,.68.68,0,0,0,.2,0,1.13,1.13,0,0,0,.18-2.24,3.37,3.37,0,0,1-2.61-2.22c0-.07-.07-.11-.1-.17A15.32,15.32,0,0,0,44,20.87a8.36,8.36,0,0,1-1-3.55c0-5.66,2.84-8.53,8.44-8.53,7.27,0,15.4,10.13,15.4,23.7S58.76,56.2,51.49,56.2Z"/><path d="M60.57,18.65a1.12,1.12,0,0,0-2,1,29.26,29.26,0,0,1,0,25.65,1.13,1.13,0,0,0,.51,1.52,1.12,1.12,0,0,0,1.51-.51,31.46,31.46,0,0,0,0-27.67Z"/><path d="M10.08,11.62a1.13,1.13,0,0,0-1.51.5,31.46,31.46,0,0,0,0,27.67,1.12,1.12,0,0,0,1.51.51,1.13,1.13,0,0,0,.51-1.52,29.24,29.24,0,0,1,0-25.64A1.13,1.13,0,0,0,10.08,11.62Z"/><path d="M32.26,13.79a1.14,1.14,0,0,0-1.13,1.11v4.47a3.08,3.08,0,0,1-.88,2.47,3.76,3.76,0,0,1-2.71.63.92.92,0,0,0-.16,0,4.73,4.73,0,0,1-1-2.68,10.2,10.2,0,0,1,1.18-4.54,10.44,10.44,0,0,0,1.18-4.46C28.76,3.84,25,0,18.07,0,9.54,0,0,11.11,0,26s9.54,26,18.07,26c5.79,0,10.69-5.44,10.69-11.89a10.32,10.32,0,0,0-1.61-4.89,7.06,7.06,0,0,1-1.14-3,4.73,4.73,0,0,1,1.23-2.63c.2-.28.41-.57.61-.88a3.53,3.53,0,0,1,2.4.65,3.11,3.11,0,0,1,.88,2.48V52.34a1.13,1.13,0,1,0,2.26,0V31.75a5.24,5.24,0,0,0-1.68-4.2,5.34,5.34,0,0,0-3-1.16,3,3,0,0,0,0-.42,4,4,0,0,0-.2-1.23,5.38,5.38,0,0,0,3.15-1.17,5.24,5.24,0,0,0,1.68-4.2V14.9A1.11,1.11,0,0,0,32.26,13.79ZM25.41,28.17a10.57,10.57,0,0,0-1.29,2.15,6.89,6.89,0,0,0-3.55-1.52A1.13,1.13,0,1,0,20.31,31a4.62,4.62,0,0,1,3.74,2.87.9.9,0,0,1,.05.09,16.84,16.84,0,0,0,1.06,2.23A8.24,8.24,0,0,1,26.51,40c0,5.76-4.37,9.63-8.44,9.63C10.76,49.67,2.26,39.32,2.26,26S10.76,2.26,18.07,2.26c5.6,0,8.44,2.87,8.44,8.54a8.23,8.23,0,0,1-1,3.54,15.25,15.25,0,0,0-1.18,3.5l-.07.11a3.36,3.36,0,0,1-2.62,2.23,1.13,1.13,0,0,0,.19,2.24H22a5.63,5.63,0,0,0,2.35-1,9.26,9.26,0,0,0,1.25,2.52,3.88,3.88,0,0,1,.89,2A4.25,4.25,0,0,1,25.41,28.17Z"/></g></svg>
