<svg xmlns="http://www.w3.org/2000/svg" viewBox="0 0 64.34 58.57"><style>path{fill:#009ADE}</style><g><path d="M61.93,24.31A57.79,57.79,0,0,0,55.54,8.25a17.19,17.19,0,0,0-4.85-5.49,7,7,0,0,0-6.56-1.1A8.69,8.69,0,0,0,38.69,7.3,28.28,28.28,0,0,0,37,15.85c-.86-.15-1-.52-1.06-1.65,0-.34,0-.68,0-1V1.25A1.25,1.25,0,0,0,34.72,0h0a1.25,1.25,0,0,0-1.24,1.25V13.18c0,.35,0,.71,0,1.06,0,2.47,1.15,3.77,3.44,4.1,0,.87-.05,1.72-.07,2.56,0,.33,0,.65,0,1a5.74,5.74,0,0,1-3.21-1.17,2.06,2.06,0,0,0-2.91,0,5.67,5.67,0,0,1-3.2,1.17c0-.33,0-.65,0-1,0-.84,0-1.69-.07-2.56,2.29-.33,3.4-1.63,3.44-4.1,0-.35,0-.71,0-1.06V9.6c0-2.78,0-5.57,0-8.35A1.25,1.25,0,0,0,29.62,0h0a1.25,1.25,0,0,0-1.25,1.25c0,2.78,0,5.57,0,8.35v3.58c0,.34,0,.68,0,1,0,1.13-.2,1.5-1.06,1.65A28.28,28.28,0,0,0,25.65,7.3a8.69,8.69,0,0,0-5.44-5.64A7,7,0,0,0,13.7,2.73,17.35,17.35,0,0,0,8.79,8.25,58.1,58.1,0,0,0,2.41,24.31,68.71,68.71,0,0,0,0,43.34c.24,6.34,1,13,4.59,14.81a4,4,0,0,0,1.79.41A7.12,7.12,0,0,0,10.46,57a24.8,24.8,0,0,1,8.87-4.48,14.15,14.15,0,0,0,5.5-2.76C30,44.94,29,37,28.14,29.9c-.24-2-.47-3.83-.55-5.52a8.71,8.71,0,0,0,4.58-1.62,8.65,8.65,0,0,0,4.58,1.62c-.09,1.69-.31,3.56-.56,5.52-.87,7.05-1.87,15,3.35,19.85A14.13,14.13,0,0,0,45,52.48,24.84,24.84,0,0,1,53.93,57a7,7,0,0,0,4,1.57,4,4,0,0,0,1.8-.42c3.62-1.76,4.35-8.47,4.59-14.82A68.69,68.69,0,0,0,61.93,24.31ZM23.16,47.86a11.69,11.69,0,0,1-4.52,2.22A27.12,27.12,0,0,0,8.94,55c-1.37,1-2.46,1.3-3.24.92C3.87,55,2.8,50.75,2.52,43.26A66.05,66.05,0,0,1,4.83,24.93a55.12,55.12,0,0,1,6.1-15.38,14.69,14.69,0,0,1,4.22-4.79,4.61,4.61,0,0,1,2.8-1A4.77,4.77,0,0,1,19.43,4a6.11,6.11,0,0,1,3.84,4l0,.1C24.8,11.91,24.9,16.71,25,21c0,.78,0,1.54.05,2.28a64.06,64.06,0,0,0,.62,7C26.47,36.66,27.38,44,23.16,47.86Zm38.66-4.61c-.28,7.5-1.35,11.76-3.19,12.65-.77.38-1.86.07-3.18-.88a27.19,27.19,0,0,0-9.75-4.94,11.64,11.64,0,0,1-4.49-2.19C37,44,37.87,36.66,38.67,30.21a59.43,59.43,0,0,0,.62-7c0-.74,0-1.5.06-2.28.09-4.24.19-9,1.68-12.77l0-.1a6.14,6.14,0,0,1,3.85-4,4.62,4.62,0,0,1,4.32.75,14.74,14.74,0,0,1,4.18,4.76,55.43,55.43,0,0,1,6.1,15.38A66.41,66.41,0,0,1,61.82,43.25Z"/><path d="M7.64,51.46a1.25,1.25,0,0,1-1.21-1,44,44,0,0,1-.91-8.29A64,64,0,0,1,7.77,24.43a1.25,1.25,0,1,1,2.42.62A61.38,61.38,0,0,0,8,42.14a39.7,39.7,0,0,0,.84,7.77,1.25,1.25,0,0,1-.92,1.51A1,1,0,0,1,7.64,51.46Z"/><path d="M45.08,47.29a1.24,1.24,0,0,1-.84-.33c-4.72-4.35-3.77-12-2.93-18.75a1.25,1.25,0,1,1,2.48.31c-.76,6.15-1.63,13.12,2.14,16.6a1.25,1.25,0,0,1-.85,2.17Z"/></g></svg>
